<svg xmlns="http://www.w3.org/2000/svg" xmlns:xlink="http://www.w3.org/1999/xlink" width="964" zoomAndPan="magnify" viewBox="0 0 723 567.000005" height="756" preserveAspectRatio="xMidYMid meet" version="1.0"><defs><clipPath id="555f898397"><path d="M 674.019531 4.992188 L 693.195312 4.992188 L 693.195312 253.105469 L 674.019531 253.105469 Z M 674.019531 4.992188 " clip-rule="nonzero"/></clipPath><clipPath id="1bab357f2b"><path d="M 0.0195312 0.992188 L 19.195312 0.992188 L 19.195312 249.105469 L 0.0195312 249.105469 Z M 0.0195312 0.992188 " clip-rule="nonzero"/></clipPath><clipPath id="a5b8ccc2b7"><rect x="0" width="20" y="0" height="250"/></clipPath><clipPath id="1b450a0383"><path d="M 650 114.703125 L 693.855469 114.703125 L 693.855469 561 L 650 561 Z M 650 114.703125 " clip-rule="nonzero"/></clipPath><clipPath id="17b30caa65"><path d="M 650.378906 509.070312 L 666.820312 509.070312 L 666.820312 523.257812 L 671.0625 523.257812 C 672.671875 523.257812 673.988281 521.949219 673.988281 520.34375 L 673.988281 114.949219 L 693.164062 114.949219 L 693.164062 534.246094 C 693.164062 543.242188 685.867188 550.539062 676.875 550.539062 L 666.820312 550.539062 L 666.820312 560.941406 L 650.378906 560.941406 Z M 650.378906 509.070312 " clip-rule="nonzero"/></clipPath><clipPath id="01be4f71bc"><path d="M 0.371094 0.757812 L 43.253906 0.757812 L 43.253906 447 L 0.371094 447 Z M 0.371094 0.757812 " clip-rule="nonzero"/></clipPath><clipPath id="68fe28ebef"><path d="M 0.378906 395.070312 L 16.820312 395.070312 L 16.820312 409.257812 L 21.0625 409.257812 C 22.671875 409.257812 23.988281 407.949219 23.988281 406.34375 L 23.988281 0.949219 L 43.164062 0.949219 L 43.164062 420.246094 C 43.164062 429.242188 35.867188 436.539062 26.875 436.539062 L 16.820312 436.539062 L 16.820312 446.941406 L 0.378906 446.941406 Z M 0.378906 395.070312 " clip-rule="nonzero"/></clipPath><clipPath id="4cff2dbcdd"><rect x="0" width="44" y="0" height="447"/></clipPath><clipPath id="9473c5008e"><path d="M 5.625 470 L 660.9375 470 L 660.9375 551 L 5.625 551 Z M 5.625 470 " clip-rule="nonzero"/></clipPath><clipPath id="8d1e4f025b"><path d="M 5.628906 470.429688 L 5.628906 489.636719 L 480.78125 489.636719 C 485.960938 489.636719 490.164062 493.949219 490.164062 499.238281 L 490.164062 521.949219 C 490.164062 537.839844 502.800781 550.769531 518.324219 550.769531 L 660.371094 550.769531 L 660.371094 531.5625 L 518.324219 531.5625 C 513.152344 531.5625 508.941406 527.25 508.941406 521.960938 L 508.941406 499.25 C 508.941406 483.359375 496.300781 470.429688 480.78125 470.429688 Z M 5.628906 470.429688 " clip-rule="nonzero"/></clipPath><clipPath id="0f4d3ef9ab"><path d="M 0.625 0.289062 L 655.433594 0.289062 L 655.433594 80.789062 L 0.625 80.789062 Z M 0.625 0.289062 " clip-rule="nonzero"/></clipPath><clipPath id="3b35075068"><path d="M 0.628906 0.429688 L 0.628906 19.636719 L 475.78125 19.636719 C 480.960938 19.636719 485.164062 23.949219 485.164062 29.238281 L 485.164062 51.949219 C 485.164062 67.839844 497.800781 80.769531 513.324219 80.769531 L 655.371094 80.769531 L 655.371094 61.5625 L 513.324219 61.5625 C 508.152344 61.5625 503.941406 57.25 503.941406 51.960938 L 503.941406 29.25 C 503.941406 13.359375 491.300781 0.429688 475.78125 0.429688 Z M 0.628906 0.429688 " clip-rule="nonzero"/></clipPath><clipPath id="ce40f33f2b"><rect x="0" width="656" y="0" height="81"/></clipPath><clipPath id="060a78e35f"><path d="M 660 518 L 692.855469 518 L 692.855469 551 L 660 551 Z M 660 518 " clip-rule="nonzero"/></clipPath><clipPath id="0626ccae5c"><path d="M 674.039062 520.832031 L 674.039062 518.015625 L 692.734375 518.015625 L 692.734375 520.832031 C 692.734375 537.324219 679.628906 550.738281 663.507812 550.738281 L 660.363281 550.738281 L 660.363281 531.613281 L 663.507812 531.613281 C 669.316406 531.613281 674.039062 526.78125 674.039062 520.832031 " clip-rule="nonzero"/></clipPath><clipPath id="e3170dfc07"><path d="M 0.191406 0 L 32.777344 0 L 32.777344 32.789062 L 0.191406 32.789062 Z M 0.191406 0 " clip-rule="nonzero"/></clipPath><clipPath id="a65bae2109"><path d="M 14.039062 2.832031 L 14.039062 0.015625 L 32.734375 0.015625 L 32.734375 2.832031 C 32.734375 19.324219 19.628906 32.738281 3.507812 32.738281 L 0.363281 32.738281 L 0.363281 13.613281 L 3.507812 13.613281 C 9.316406 13.613281 14.039062 8.78125 14.039062 2.832031 " clip-rule="nonzero"/></clipPath><clipPath id="5e9f8bcdc4"><rect x="0" width="33" y="0" height="33"/></clipPath><clipPath id="3bab1fce24"><path d="M 660 518 L 683.878906 518 L 683.878906 541.605469 L 660 541.605469 Z M 660 518 " clip-rule="nonzero"/></clipPath><clipPath id="e0847f116f"><path d="M 674.039062 520.832031 L 674.039062 518.015625 L 683.382812 518.015625 L 683.382812 520.832031 C 683.382812 532.050781 674.457031 541.175781 663.507812 541.175781 L 660.363281 541.175781 L 660.363281 531.613281 L 663.507812 531.613281 C 669.316406 531.613281 674.039062 526.78125 674.039062 520.832031 " clip-rule="nonzero"/></clipPath><clipPath id="eb25931ab5"><path d="M 0.191406 0 L 23.433594 0 L 23.433594 23.207031 L 0.191406 23.207031 Z M 0.191406 0 " clip-rule="nonzero"/></clipPath><clipPath id="1ce5e1c50c"><path d="M 14.039062 2.832031 L 14.039062 0.015625 L 23.382812 0.015625 L 23.382812 2.832031 C 23.382812 14.050781 14.457031 23.175781 3.507812 23.175781 L 0.363281 23.175781 L 0.363281 13.613281 L 3.507812 13.613281 C 9.316406 13.613281 14.039062 8.78125 14.039062 2.832031 " clip-rule="nonzero"/></clipPath><clipPath id="ae510befb3"><rect x="0" width="24" y="0" height="24"/></clipPath><clipPath id="89a495a475"><path d="M 671.3125 484.136719 L 695.640625 484.136719 L 695.640625 490.8125 L 671.3125 490.8125 Z M 671.3125 484.136719 " clip-rule="nonzero"/></clipPath><clipPath id="fa3eec762e"><path d="M 0.3125 0.136719 L 24.640625 0.136719 L 24.640625 6.8125 L 0.3125 6.8125 Z M 0.3125 0.136719 " clip-rule="nonzero"/></clipPath><clipPath id="c352ab2872"><rect x="0" width="25" y="0" height="7"/></clipPath><clipPath id="9508d0587e"><path d="M 671.3125 484.136719 L 680.976562 484.136719 L 680.976562 490.8125 L 671.3125 490.8125 Z M 671.3125 484.136719 " clip-rule="nonzero"/></clipPath><clipPath id="1288e731a5"><path d="M 0.3125 0.136719 L 9.976562 0.136719 L 9.976562 6.8125 L 0.3125 6.8125 Z M 0.3125 0.136719 " clip-rule="nonzero"/></clipPath><clipPath id="c2761e0bc1"><rect x="0" width="10" y="0" height="7"/></clipPath><clipPath id="9eb1ae65a9"><path d="M 672.890625 482.019531 L 694.054688 482.019531 L 694.054688 484.136719 L 672.890625 484.136719 Z M 672.890625 482.019531 " clip-rule="nonzero"/></clipPath><clipPath id="eca2b8e387"><path d="M 0.890625 0.0195312 L 22.054688 0.0195312 L 22.054688 2.136719 L 0.890625 2.136719 Z M 0.890625 0.0195312 " clip-rule="nonzero"/></clipPath><clipPath id="27c101e75b"><rect x="0" width="23" y="0" height="3"/></clipPath><clipPath id="315e566063"><path d="M 672.890625 482.019531 L 681.304688 482.019531 L 681.304688 484.136719 L 672.890625 484.136719 Z M 672.890625 482.019531 " clip-rule="nonzero"/></clipPath><clipPath id="d2006b4153"><path d="M 0.890625 0.0195312 L 9.304688 0.0195312 L 9.304688 2.136719 L 0.890625 2.136719 Z M 0.890625 0.0195312 " clip-rule="nonzero"/></clipPath><clipPath id="3b4dbdb133"><rect x="0" width="10" y="0" height="3"/></clipPath><clipPath id="2d9c319734"><path d="M 666 469 L 701 469 L 701 482.757812 L 666 482.757812 Z M 666 469 " clip-rule="nonzero"/></clipPath><clipPath id="3a3585b06e"><path d="M 695.472656 469.222656 L 671.484375 469.222656 L 666.03125 470.601562 L 666.03125 480.640625 L 671.484375 482.019531 L 695.472656 482.019531 L 696.820312 481.671875 L 700.921875 480.640625 L 700.921875 470.601562 L 696.820312 469.5625 Z M 695.472656 469.222656 " clip-rule="nonzero"/></clipPath><clipPath id="05df3a9a97"><path d="M 0 0.09375 L 35 0.09375 L 35 13.03125 L 0 13.03125 Z M 0 0.09375 " clip-rule="nonzero"/></clipPath><clipPath id="35cbb445df"><path d="M 29.472656 0.222656 L 5.484375 0.222656 L 0.03125 1.601562 L 0.03125 11.640625 L 5.484375 13.019531 L 29.472656 13.019531 L 30.820312 12.671875 L 34.921875 11.640625 L 34.921875 1.601562 L 30.820312 0.5625 Z M 29.472656 0.222656 " clip-rule="nonzero"/></clipPath><clipPath id="0a0a90d081"><rect x="0" width="35" y="0" height="14"/></clipPath><clipPath id="9b3a8fdfa0"><path d="M 675 469 L 691.859375 469 L 691.859375 482 L 675 482 Z M 675 469 " clip-rule="nonzero"/></clipPath><clipPath id="ae30562594"><path d="M 675.785156 470.730469 C 675.785156 473.992188 675.785156 477.257812 675.785156 480.511719 C 680.785156 482.179688 686.175781 482.179688 691.179688 480.511719 L 691.179688 470.730469 C 686.175781 469.0625 680.785156 469.0625 675.785156 470.730469 " clip-rule="nonzero"/></clipPath><clipPath id="13786b1831"><path d="M 0.765625 0 L 16.339844 0 L 16.339844 13 L 0.765625 13 Z M 0.765625 0 " clip-rule="nonzero"/></clipPath><clipPath id="a62b370894"><path d="M 0.785156 1.730469 C 0.785156 4.992188 0.785156 8.257812 0.785156 11.511719 C 5.785156 13.179688 11.175781 13.179688 16.179688 11.511719 L 16.179688 1.730469 C 11.175781 0.0625 5.785156 0.0625 0.785156 1.730469 " clip-rule="nonzero"/></clipPath><clipPath id="5508f520b9"><rect x="0" width="17" y="0" height="13"/></clipPath><clipPath id="1f01f0469b"><path d="M 691 469 L 701 469 L 701 481.761719 L 691 481.761719 Z M 691 469 " clip-rule="nonzero"/></clipPath><clipPath id="8ed26ce29a"><path d="M 696.820312 469.570312 C 694.910156 469.742188 693.003906 470.121094 691.167969 470.730469 L 691.167969 480.511719 C 693.003906 481.140625 694.910156 481.519531 696.820312 481.671875 L 700.921875 480.632812 L 700.921875 470.601562 Z M 696.820312 469.570312 " clip-rule="nonzero"/></clipPath><clipPath id="d7c32382fa"><path d="M 0.0976562 0.332031 L 10 0.332031 L 10 12.761719 L 0.0976562 12.761719 Z M 0.0976562 0.332031 " clip-rule="nonzero"/></clipPath><clipPath id="7cd44a74ab"><path d="M 5.820312 0.570312 C 3.910156 0.742188 2.003906 1.121094 0.167969 1.730469 L 0.167969 11.511719 C 2.003906 12.140625 3.910156 12.519531 5.820312 12.671875 L 9.921875 11.632812 L 9.921875 1.601562 Z M 5.820312 0.570312 " clip-rule="nonzero"/></clipPath><clipPath id="2208c38284"><rect x="0" width="10" y="0" height="13"/></clipPath><clipPath id="9f28497877"><path d="M 666 469 L 675.898438 469 L 675.898438 481.761719 L 666 481.761719 Z M 666 469 " clip-rule="nonzero"/></clipPath><clipPath id="432f5e536d"><path d="M 670.136719 469.570312 C 672.042969 469.742188 673.949219 470.121094 675.785156 470.730469 L 675.785156 480.511719 C 673.949219 481.140625 672.042969 481.519531 670.136719 481.671875 L 666.03125 480.632812 L 666.03125 470.601562 Z M 670.136719 469.570312 " clip-rule="nonzero"/></clipPath><clipPath id="379b451a0f"><path d="M 0 0.332031 L 9.898438 0.332031 L 9.898438 12.761719 L 0 12.761719 Z M 0 0.332031 " clip-rule="nonzero"/></clipPath><clipPath id="2adb3ff721"><path d="M 4.136719 0.570312 C 6.042969 0.742188 7.949219 1.121094 9.785156 1.730469 L 9.785156 11.511719 C 7.949219 12.140625 6.042969 12.519531 4.136719 12.671875 L 0.03125 11.632812 L 0.03125 1.601562 Z M 4.136719 0.570312 " clip-rule="nonzero"/></clipPath><clipPath id="d2bff30996"><rect x="0" width="10" y="0" height="13"/></clipPath><clipPath id="a4128af8dd"><path d="M 673.96875 490.8125 L 692.734375 490.8125 L 692.734375 518.015625 L 673.96875 518.015625 Z M 673.96875 490.8125 " clip-rule="nonzero"/></clipPath><clipPath id="da9301f029"><path d="M 0.96875 0.8125 L 19.734375 0.8125 L 19.734375 28.015625 L 0.96875 28.015625 Z M 0.96875 0.8125 " clip-rule="nonzero"/></clipPath><clipPath id="1f9c312562"><rect x="0" width="20" y="0" height="29"/></clipPath><clipPath id="842ebc4982"><path d="M 673.96875 490.8125 L 683.351562 490.8125 L 683.351562 518.015625 L 673.96875 518.015625 Z M 673.96875 490.8125 " clip-rule="nonzero"/></clipPath><clipPath id="e0d4ee76aa"><path d="M 0.96875 0.8125 L 10.351562 0.8125 L 10.351562 28.015625 L 0.96875 28.015625 Z M 0.96875 0.8125 " clip-rule="nonzero"/></clipPath><clipPath id="16648d3f23"><rect x="0" width="11" y="0" height="29"/></clipPath><clipPath id="9b0649de86"><path d="M 674.097656 448.410156 L 692.867188 448.410156 L 692.867188 475.609375 L 674.097656 475.609375 Z M 674.097656 448.410156 " clip-rule="nonzero"/></clipPath><clipPath id="310640615c"><path d="M 0.0976562 0.410156 L 18.867188 0.410156 L 18.867188 27.609375 L 0.0976562 27.609375 Z M 0.0976562 0.410156 " clip-rule="nonzero"/></clipPath><clipPath id="34f87b626d"><rect x="0" width="19" y="0" height="28"/></clipPath><clipPath id="7cb9567754"><path d="M 674.097656 448.410156 L 683.480469 448.410156 L 683.480469 475.609375 L 674.097656 475.609375 Z M 674.097656 448.410156 " clip-rule="nonzero"/></clipPath><clipPath id="ae2d78dd67"><path d="M 0.0976562 0.410156 L 9.480469 0.410156 L 9.480469 27.609375 L 0.0976562 27.609375 Z M 0.0976562 0.410156 " clip-rule="nonzero"/></clipPath><clipPath id="90183ce9f3"><rect x="0" width="10" y="0" height="28"/></clipPath><clipPath id="63e7125dfe"><path d="M 604.03125 529.496094 L 610.300781 529.496094 L 610.300781 552.863281 L 604.03125 552.863281 Z M 604.03125 529.496094 " clip-rule="nonzero"/></clipPath><clipPath id="a23d42a23b"><path d="M 0.03125 0.496094 L 6.300781 0.496094 L 6.300781 23.863281 L 0.03125 23.863281 Z M 0.03125 0.496094 " clip-rule="nonzero"/></clipPath><clipPath id="17a49301e3"><rect x="0" width="7" y="0" height="24"/></clipPath><clipPath id="402175a15e"><path d="M 604.03125 543.582031 L 610.300781 543.582031 L 610.300781 552.863281 L 604.03125 552.863281 Z M 604.03125 543.582031 " clip-rule="nonzero"/></clipPath><clipPath id="0534049486"><path d="M 0.03125 0.582031 L 6.300781 0.582031 L 6.300781 9.863281 L 0.03125 9.863281 Z M 0.03125 0.582031 " clip-rule="nonzero"/></clipPath><clipPath id="c8ddd1c8ec"><rect x="0" width="7" y="0" height="10"/></clipPath><clipPath id="34ed3376ef"><path d="M 602.046875 531.011719 L 604.03125 531.011719 L 604.03125 551.347656 L 602.046875 551.347656 Z M 602.046875 531.011719 " clip-rule="nonzero"/></clipPath><clipPath id="37fca9c7de"><path d="M 0.046875 0.0117188 L 2.03125 0.0117188 L 2.03125 20.347656 L 0.046875 20.347656 Z M 0.046875 0.0117188 " clip-rule="nonzero"/></clipPath><clipPath id="6d60a4bab6"><rect x="0" width="3" y="0" height="21"/></clipPath><clipPath id="766533adff"><path d="M 602.046875 543.261719 L 604.03125 543.261719 L 604.03125 551.347656 L 602.046875 551.347656 Z M 602.046875 543.261719 " clip-rule="nonzero"/></clipPath><clipPath id="a8a6bba3a1"><path d="M 0.046875 0.261719 L 2.03125 0.261719 L 2.03125 8.347656 L 0.046875 8.347656 Z M 0.046875 0.261719 " clip-rule="nonzero"/></clipPath><clipPath id="e3c33185a7"><rect x="0" width="3" y="0" height="9"/></clipPath><clipPath id="0ec1fff1c6"><path d="M 590 524 L 602.089844 524 L 602.089844 558 L 590 558 Z M 590 524 " clip-rule="nonzero"/></clipPath><clipPath id="960dfb91d3"><path d="M 590.035156 529.65625 L 590.035156 552.707031 L 591.324219 557.9375 L 600.75 557.9375 L 602.035156 552.707031 L 602.035156 529.65625 L 601.714844 528.367188 L 600.75 524.425781 L 591.324219 524.425781 L 590.355469 528.367188 Z M 590.035156 529.65625 " clip-rule="nonzero"/></clipPath><clipPath id="fe4c5e0517"><path d="M 0 0.195312 L 12.089844 0.195312 L 12.089844 33.976562 L 0 33.976562 Z M 0 0.195312 " clip-rule="nonzero"/></clipPath><clipPath id="3036a94302"><path d="M 0.0351562 5.65625 L 0.0351562 28.707031 L 1.324219 33.9375 L 10.75 33.9375 L 12.035156 28.707031 L 12.035156 5.65625 L 11.714844 4.367188 L 10.75 0.425781 L 1.324219 0.425781 L 0.355469 4.367188 Z M 0.0351562 5.65625 " clip-rule="nonzero"/></clipPath><clipPath id="2e1cbc7846"><rect x="0" width="13" y="0" height="34"/></clipPath><clipPath id="f9358a493e"><path d="M 590.121094 533.628906 L 602 533.628906 L 602 548.589844 L 590.121094 548.589844 Z M 590.121094 533.628906 " clip-rule="nonzero"/></clipPath><clipPath id="fddc6bee33"><path d="M 591.445312 548.574219 L 600.636719 548.574219 C 602.195312 543.769531 602.195312 538.589844 600.636719 533.789062 L 591.445312 533.789062 C 589.886719 538.589844 589.886719 543.769531 591.445312 548.574219 " clip-rule="nonzero"/></clipPath><clipPath id="286a2d4b8d"><path d="M 0.121094 0.777344 L 12 0.777344 L 12 15.589844 L 0.121094 15.589844 Z M 0.121094 0.777344 " clip-rule="nonzero"/></clipPath><clipPath id="4ac7f6beb3"><path d="M 1.445312 15.574219 L 10.636719 15.574219 C 12.195312 10.769531 12.195312 5.589844 10.636719 0.789062 L 1.445312 0.789062 C -0.113281 5.589844 -0.113281 10.769531 1.445312 15.574219 " clip-rule="nonzero"/></clipPath><clipPath id="f077d6dc74"><rect x="0" width="12" y="0" height="16"/></clipPath><clipPath id="b11f65d8f9"><path d="M 590.121094 524 L 602 524 L 602 534 L 590.121094 534 Z M 590.121094 524 " clip-rule="nonzero"/></clipPath><clipPath id="3f7d50edf4"><path d="M 590.355469 528.359375 C 590.515625 530.183594 590.875 532.023438 591.445312 533.777344 L 600.628906 533.777344 C 601.21875 532.023438 601.578125 530.183594 601.714844 528.359375 L 600.75 524.414062 L 591.324219 524.414062 Z M 590.355469 528.359375 " clip-rule="nonzero"/></clipPath><clipPath id="55d88eb21e"><path d="M 0.238281 0.195312 L 11.734375 0.195312 L 11.734375 9.777344 L 0.238281 9.777344 Z M 0.238281 0.195312 " clip-rule="nonzero"/></clipPath><clipPath id="1a5914e82a"><path d="M 0.355469 4.359375 C 0.515625 6.183594 0.875 8.023438 1.445312 9.777344 L 10.628906 9.777344 C 11.21875 8.023438 11.578125 6.183594 11.714844 4.359375 L 10.75 0.414062 L 1.324219 0.414062 Z M 0.355469 4.359375 " clip-rule="nonzero"/></clipPath><clipPath id="9bd7b332e4"><rect x="0" width="12" y="0" height="10"/></clipPath><clipPath id="d7dfb3deef"><path d="M 590.121094 548 L 602 548 L 602 558 L 590.121094 558 Z M 590.121094 548 " clip-rule="nonzero"/></clipPath><clipPath id="37c690adad"><path d="M 590.355469 553.992188 C 590.515625 552.167969 590.875 550.328125 591.445312 548.574219 L 600.628906 548.574219 C 601.21875 550.328125 601.578125 552.167969 601.714844 553.992188 L 600.75 557.9375 L 591.324219 557.9375 Z M 590.355469 553.992188 " clip-rule="nonzero"/></clipPath><clipPath id="ec672edcca"><path d="M 0.238281 0.394531 L 11.734375 0.394531 L 11.734375 9.976562 L 0.238281 9.976562 Z M 0.238281 0.394531 " clip-rule="nonzero"/></clipPath><clipPath id="6e9ebab859"><path d="M 0.355469 5.992188 C 0.515625 4.167969 0.875 2.328125 1.445312 0.574219 L 10.628906 0.574219 C 11.21875 2.328125 11.578125 4.167969 11.714844 5.992188 L 10.75 9.9375 L 1.324219 9.9375 Z M 0.355469 5.992188 " clip-rule="nonzero"/></clipPath><clipPath id="b246604652"><rect x="0" width="12" y="0" height="10"/></clipPath></defs><g clip-path="url(#555f898397)"><g transform="matrix(1, 0, 0, 1, 674, 4)"><g clip-path="url(#a5b8ccc2b7)"><g clip-path="url(#1bab357f2b)"><rect x="-833.06" width="1041.12" fill="#ffffff" height="816.480007" y="-128.740001" fill-opacity="1"/></g></g></g></g><g clip-path="url(#1b450a0383)"><g clip-path="url(#17b30caa65)"><g transform="matrix(1, 0, 0, 1, 650, 114)"><g clip-path="url(#4cff2dbcdd)"><g clip-path="url(#01be4f71bc)"><g clip-path="url(#68fe28ebef)"><rect x="-809.06" width="1041.12" fill="#ffffff" height="816.480007" y="-238.740001" fill-opacity="1"/></g></g></g></g></g></g><g clip-path="url(#9473c5008e)"><g clip-path="url(#8d1e4f025b)"><g transform="matrix(1, 0, 0, 1, 5, 470)"><g clip-path="url(#ce40f33f2b)"><g clip-path="url(#0f4d3ef9ab)"><g clip-path="url(#3b35075068)"><rect x="-164.06" width="1041.12" fill="#ffffff" height="816.480007" y="-594.740001" fill-opacity="1"/></g></g></g></g></g></g><g clip-path="url(#060a78e35f)"><g clip-path="url(#0626ccae5c)"><g transform="matrix(1, 0, 0, 1, 660, 518)"><g clip-path="url(#5e9f8bcdc4)"><g clip-path="url(#e3170dfc07)"><g clip-path="url(#a65bae2109)"><rect x="-819.06" width="1041.12" fill="#ffffff" height="816.480007" y="-642.740001" fill-opacity="1"/></g></g></g></g></g></g><g clip-path="url(#3bab1fce24)"><g clip-path="url(#e0847f116f)"><g transform="matrix(1, 0, 0, 1, 660, 518)"><g clip-path="url(#ae510befb3)"><g clip-path="url(#eb25931ab5)"><g clip-path="url(#1ce5e1c50c)"><rect x="-819.06" width="1041.12" fill="#ffffff" height="816.480007" y="-642.740001" fill-opacity="1"/></g></g></g></g></g></g><g clip-path="url(#89a495a475)"><g transform="matrix(1, 0, 0, 1, 671, 484)"><g clip-path="url(#c352ab2872)"><g clip-path="url(#fa3eec762e)"><rect x="-830.06" width="1041.12" fill="#ffffff" height="816.480007" y="-608.740001" fill-opacity="1"/></g></g></g></g><g clip-path="url(#9508d0587e)"><g transform="matrix(1, 0, 0, 1, 671, 484)"><g clip-path="url(#c2761e0bc1)"><g clip-path="url(#1288e731a5)"><rect x="-830.06" width="1041.12" fill="#ffffff" height="816.480007" y="-608.740001" fill-opacity="1"/></g></g></g></g><g clip-path="url(#9eb1ae65a9)"><g transform="matrix(1, 0, 0, 1, 672, 482)"><g clip-path="url(#27c101e75b)"><g clip-path="url(#eca2b8e387)"><rect x="-831.06" width="1041.12" fill="#ffffff" height="816.480007" y="-606.740001" fill-opacity="1"/></g></g></g></g><g clip-path="url(#315e566063)"><g transform="matrix(1, 0, 0, 1, 672, 482)"><g clip-path="url(#3b4dbdb133)"><g clip-path="url(#d2006b4153)"><rect x="-831.06" width="1041.12" fill="#ffffff" height="816.480007" y="-606.740001" fill-opacity="1"/></g></g></g></g><g clip-path="url(#2d9c319734)"><g clip-path="url(#3a3585b06e)"><g transform="matrix(1, 0, 0, 1, 666, 469)"><g clip-path="url(#0a0a90d081)"><g clip-path="url(#05df3a9a97)"><g clip-path="url(#35cbb445df)"><rect x="-825.06" width="1041.12" fill="#ffffff" height="816.480007" y="-593.740001" fill-opacity="1"/></g></g></g></g></g></g><g clip-path="url(#9b3a8fdfa0)"><g clip-path="url(#ae30562594)"><g transform="matrix(1, 0, 0, 1, 675, 469)"><g clip-path="url(#5508f520b9)"><g clip-path="url(#13786b1831)"><g clip-path="url(#a62b370894)"><rect x="-834.06" width="1041.12" fill="#ffffff" height="816.480007" y="-593.740001" fill-opacity="1"/></g></g></g></g></g></g><g clip-path="url(#1f01f0469b)"><g clip-path="url(#8ed26ce29a)"><g transform="matrix(1, 0, 0, 1, 691, 469)"><g clip-path="url(#2208c38284)"><g clip-path="url(#d7c32382fa)"><g clip-path="url(#7cd44a74ab)"><rect x="-850.06" width="1041.12" fill="#ffffff" height="816.480007" y="-593.740001" fill-opacity="1"/></g></g></g></g></g></g><g clip-path="url(#9f28497877)"><g clip-path="url(#432f5e536d)"><g transform="matrix(1, 0, 0, 1, 666, 469)"><g clip-path="url(#d2bff30996)"><g clip-path="url(#379b451a0f)"><g clip-path="url(#2adb3ff721)"><rect x="-825.06" width="1041.12" fill="#ffffff" height="816.480007" y="-593.740001" fill-opacity="1"/></g></g></g></g></g></g><g clip-path="url(#a4128af8dd)"><g transform="matrix(1, 0, 0, 1, 673, 490)"><g clip-path="url(#1f9c312562)"><g clip-path="url(#da9301f029)"><rect x="-832.06" width="1041.12" fill="#ffffff" height="816.480007" y="-614.740001" fill-opacity="1"/></g></g></g></g><g clip-path="url(#842ebc4982)"><g transform="matrix(1, 0, 0, 1, 673, 490)"><g clip-path="url(#16648d3f23)"><g clip-path="url(#e0d4ee76aa)"><rect x="-832.06" width="1041.12" fill="#ffffff" height="816.480007" y="-614.740001" fill-opacity="1"/></g></g></g></g><g clip-path="url(#9b0649de86)"><g transform="matrix(1, 0, 0, 1, 674, 448)"><g clip-path="url(#34f87b626d)"><g clip-path="url(#310640615c)"><rect x="-833.06" width="1041.12" fill="#ffffff" height="816.480007" y="-572.740001" fill-opacity="1"/></g></g></g></g><g clip-path="url(#7cb9567754)"><g transform="matrix(1, 0, 0, 1, 674, 448)"><g clip-path="url(#90183ce9f3)"><g clip-path="url(#ae2d78dd67)"><rect x="-833.06" width="1041.12" fill="#ffffff" height="816.480007" y="-572.740001" fill-opacity="1"/></g></g></g></g><g clip-path="url(#63e7125dfe)"><g transform="matrix(1, 0, 0, 1, 604, 529)"><g clip-path="url(#17a49301e3)"><g clip-path="url(#a23d42a23b)"><rect x="-763.06" width="1041.12" fill="#ffffff" height="816.480007" y="-653.740001" fill-opacity="1"/></g></g></g></g><g clip-path="url(#402175a15e)"><g transform="matrix(1, 0, 0, 1, 604, 543)"><g clip-path="url(#c8ddd1c8ec)"><g clip-path="url(#0534049486)"><rect x="-763.06" width="1041.12" fill="#ffffff" height="816.480007" y="-667.740001" fill-opacity="1"/></g></g></g></g><g clip-path="url(#34ed3376ef)"><g transform="matrix(1, 0, 0, 1, 602, 531)"><g clip-path="url(#6d60a4bab6)"><g clip-path="url(#37fca9c7de)"><rect x="-761.06" width="1041.12" fill="#ffffff" height="816.480007" y="-655.740001" fill-opacity="1"/></g></g></g></g><g clip-path="url(#766533adff)"><g transform="matrix(1, 0, 0, 1, 602, 543)"><g clip-path="url(#e3c33185a7)"><g clip-path="url(#a8a6bba3a1)"><rect x="-761.06" width="1041.12" fill="#ffffff" height="816.480007" y="-667.740001" fill-opacity="1"/></g></g></g></g><g clip-path="url(#0ec1fff1c6)"><g clip-path="url(#960dfb91d3)"><g transform="matrix(1, 0, 0, 1, 590, 524)"><g clip-path="url(#2e1cbc7846)"><g clip-path="url(#fe4c5e0517)"><g clip-path="url(#3036a94302)"><rect x="-749.06" width="1041.12" fill="#ffffff" height="816.480007" y="-648.740001" fill-opacity="1"/></g></g></g></g></g></g><g clip-path="url(#f9358a493e)"><g clip-path="url(#fddc6bee33)"><g transform="matrix(1, 0, 0, 1, 590, 533)"><g clip-path="url(#f077d6dc74)"><g clip-path="url(#286a2d4b8d)"><g clip-path="url(#4ac7f6beb3)"><rect x="-749.06" width="1041.12" fill="#ffffff" height="816.480007" y="-657.740001" fill-opacity="1"/></g></g></g></g></g></g><g clip-path="url(#b11f65d8f9)"><g clip-path="url(#3f7d50edf4)"><g transform="matrix(1, 0, 0, 1, 590, 524)"><g clip-path="url(#9bd7b332e4)"><g clip-path="url(#55d88eb21e)"><g clip-path="url(#1a5914e82a)"><rect x="-749.06" width="1041.12" fill="#ffffff" height="816.480007" y="-648.740001" fill-opacity="1"/></g></g></g></g></g></g><g clip-path="url(#d7dfb3deef)"><g clip-path="url(#37c690adad)"><g transform="matrix(1, 0, 0, 1, 590, 548)"><g clip-path="url(#b246604652)"><g clip-path="url(#ec672edcca)"><g clip-path="url(#6e9ebab859)"><rect x="-749.06" width="1041.12" fill="#ffffff" height="816.480007" y="-672.740001" fill-opacity="1"/></g></g></g></g></g></g></svg>